<?xml version="1.0" encoding="utf-8"?>
<!-- Generator: Adobe Illustrator 27.5.0, SVG Export Plug-In . SVG Version: 6.00 Build 0)  -->
<svg version="1.1" xmlns="http://www.w3.org/2000/svg" xmlns:xlink="http://www.w3.org/1999/xlink" x="0px" y="0px"
	 viewBox="0 0 500 500" style="enable-background:new 0 0 500 500;" xml:space="preserve">
<g id="BACKGROUND">
	<rect style="fill:#76B3D2;" width="500" height="500"/>
</g>
<g id="OBJECTS">
	<g>
		<g>
			<g>
				<path style="fill:#FFFFFF;" d="M89.674,358.495c-4.107,0-7.448-3.341-7.448-7.447c0-4.107,3.341-7.447,7.448-7.447
					c4.106,0,7.447,3.341,7.447,7.447C97.122,355.154,93.781,358.495,89.674,358.495z M89.674,347.601
					c-1.901,0-3.448,1.547-3.448,3.447c0,1.9,1.547,3.447,3.448,3.447s3.447-1.547,3.447-3.447
					C93.122,349.147,91.575,347.601,89.674,347.601z"/>
			</g>
			<g>
				<g>
					<path style="fill:#FFFFFF;" d="M89.674,365.322c-1.104,0-2-0.896-2-2v-6.733c0-1.104,0.896-2,2-2s2,0.896,2,2v6.733
						C91.674,364.427,90.779,365.322,89.674,365.322z"/>
				</g>
				<g>
					<path style="fill:#FFFFFF;" d="M89.674,347.507c-1.104,0-2-0.896-2-2v-6.733c0-1.104,0.896-2,2-2s2,0.896,2,2v6.733
						C91.674,346.611,90.779,347.507,89.674,347.507z"/>
				</g>
				<g>
					<path style="fill:#FFFFFF;" d="M84.01,353.048h-6.61c-1.104,0-2-0.896-2-2c0-1.105,0.896-2,2-2h6.61c1.104,0,2,0.895,2,2
						C86.01,352.152,85.114,353.048,84.01,353.048z"/>
				</g>
				<g>
					<path style="fill:#FFFFFF;" d="M101.949,353.048h-6.732c-1.104,0-2-0.896-2-2c0-1.105,0.896-2,2-2h6.732c1.104,0,2,0.895,2,2
						C103.949,352.152,103.053,353.048,101.949,353.048z"/>
				</g>
				<g>
					<path style="fill:#FFFFFF;" d="M85.669,349.042c-0.512,0-1.023-0.195-1.414-0.586l-4.674-4.674
						c-0.781-0.78-0.781-2.047,0-2.828c0.781-0.781,2.047-0.781,2.829,0l4.674,4.674c0.781,0.78,0.781,2.047,0.001,2.828
						C86.693,348.847,86.181,349.042,85.669,349.042z"/>
				</g>
				<g>
					<path style="fill:#FFFFFF;" d="M98.354,361.728c-0.512,0-1.024-0.195-1.414-0.586l-4.125-4.126
						c-0.781-0.781-0.781-2.047,0-2.828c0.78-0.781,2.048-0.781,2.828,0l4.126,4.126c0.781,0.781,0.78,2.048-0.001,2.829
						C99.377,361.532,98.865,361.728,98.354,361.728z"/>
				</g>
				<g>
					<path style="fill:#FFFFFF;" d="M80.995,361.728c-0.512,0-1.023-0.195-1.414-0.586c-0.781-0.78-0.781-2.047,0-2.828l4.317-4.317
						c0.781-0.781,2.047-0.781,2.829,0c0.781,0.78,0.781,2.047,0,2.828l-4.317,4.317C82.019,361.532,81.506,361.728,80.995,361.728z
						"/>
				</g>
				<g>
					<path style="fill:#FFFFFF;" d="M93.678,349.044c-0.512,0-1.024-0.195-1.414-0.586c-0.781-0.781-0.781-2.047,0-2.828
						l4.676-4.676c0.78-0.781,2.048-0.781,2.828,0c0.781,0.781,0.781,2.047,0,2.828l-4.676,4.676
						C94.702,348.849,94.189,349.044,93.678,349.044z"/>
				</g>
			</g>
		</g>
		<g>
			<path style="fill:#FFFFFF;" d="M425.274,422.867h-5.107c-0.163-0.583-0.393-1.138-0.686-1.653l3.612-3.611
				c0.78-0.782,0.78-2.048,0-2.828c-0.78-0.782-2.049-0.782-2.829,0l-3.611,3.611c-0.516-0.292-1.07-0.521-1.653-0.685v-5.107
				c0-1.105-0.896-2-2-2c-1.105,0-2,0.895-2,2v5.107c-0.583,0.163-1.138,0.393-1.654,0.685l-3.611-3.611
				c-0.781-0.782-2.047-0.782-2.828,0c-0.781,0.78-0.781,2.048,0,2.828l3.611,3.61c-0.292,0.517-0.521,1.071-0.685,1.654h-5.108
				c-1.104,0-2,0.897-2,2c0,1.105,0.896,2,2,2h5.108c0.163,0.584,0.393,1.138,0.685,1.654l-3.611,3.611
				c-0.781,0.782-0.781,2.049,0,2.829c0.391,0.391,0.902,0.586,1.414,0.586c0.512,0,1.023-0.195,1.415-0.586l3.61-3.612
				c0.517,0.293,1.071,0.521,1.654,0.685v5.108c0,1.103,0.895,2,2,2c1.104,0,2-0.897,2-2v-5.108
				c0.583-0.163,1.138-0.393,1.653-0.685l3.611,3.612c0.391,0.391,0.902,0.586,1.415,0.586c0.511,0,1.022-0.195,1.413-0.585
				c0.781-0.781,0.781-2.048,0.001-2.83l-3.611-3.611c0.292-0.517,0.521-1.07,0.685-1.654h5.107c1.104,0,2-0.895,2-2
				C427.274,423.764,426.379,422.867,425.274,422.867z M413,428.315c-1.901,0-3.448-1.547-3.448-3.448
				c0-1.9,1.547-3.447,3.448-3.447c1.9,0,3.447,1.547,3.447,3.447C416.447,426.769,414.9,428.315,413,428.315z"/>
		</g>
		<g>
			<path style="fill:#FFFFFF;" d="M464.206,43.326h-5.107c-0.163-0.583-0.393-1.138-0.685-1.654l3.611-3.611
				c0.781-0.781,0.781-2.047,0-2.828c-0.78-0.781-2.048-0.781-2.828,0l-3.611,3.611c-0.517-0.292-1.071-0.521-1.654-0.685v-5.107
				c0-1.104-0.895-2-2-2c-1.104,0-2,0.896-2,2v5.107c-0.583,0.163-1.137,0.393-1.653,0.685l-3.612-3.611
				c-0.78-0.781-2.047-0.781-2.828,0c-0.781,0.781-0.781,2.048,0,2.828l3.612,3.611c-0.293,0.517-0.522,1.071-0.686,1.655h-5.107
				c-1.104,0-2,0.896-2,2s0.896,2,2,2h5.107c0.163,0.583,0.393,1.137,0.685,1.653l-3.611,3.612c-0.781,0.781-0.781,2.048,0,2.828
				c0.392,0.391,0.902,0.586,1.414,0.586c0.513,0,1.024-0.195,1.415-0.586l3.611-3.612c0.516,0.292,1.07,0.522,1.653,0.685V57.6
				c0,1.104,0.896,2,2,2c1.105,0,2-0.896,2-2v-5.108c0.584-0.163,1.138-0.393,1.654-0.685l3.611,3.612
				c0.391,0.391,0.901,0.586,1.414,0.586c0.512,0,1.023-0.195,1.414-0.585c0.781-0.781,0.781-2.048,0-2.829l-3.611-3.612
				c0.292-0.517,0.521-1.071,0.685-1.654h5.107c1.104,0,2-0.896,2-2S465.31,43.326,464.206,43.326z M451.932,48.772
				c-1.9,0-3.447-1.546-3.447-3.447c0-1.9,1.547-3.447,3.447-3.447c1.901,0,3.447,1.547,3.447,3.447
				C455.379,47.226,453.833,48.772,451.932,48.772z"/>
		</g>
		<g>
			<path style="fill:#FFFFFF;" d="M38.853,43.817H35c-0.123-0.44-0.296-0.858-0.517-1.248l2.724-2.724
				c0.589-0.589,0.589-1.544,0-2.133c-0.588-0.589-1.544-0.589-2.133,0l-2.724,2.724c-0.389-0.221-0.808-0.394-1.247-0.516v-3.853
				c0-0.833-0.676-1.509-1.509-1.509s-1.509,0.676-1.509,1.509v3.853c-0.439,0.123-0.858,0.296-1.247,0.517l-2.724-2.724
				c-0.589-0.589-1.545-0.589-2.134,0c-0.589,0.589-0.589,1.544,0,2.133l2.724,2.724c-0.221,0.39-0.394,0.808-0.517,1.248h-3.853
				c-0.833,0-1.508,0.675-1.508,1.509c0,0.833,0.675,1.508,1.508,1.508h3.853c0.123,0.44,0.296,0.858,0.516,1.248l-2.724,2.725
				c-0.589,0.589-0.589,1.544,0,2.133c0.294,0.294,0.681,0.442,1.066,0.442c0.386,0,0.772-0.147,1.067-0.442l2.724-2.725
				c0.39,0.221,0.808,0.394,1.247,0.517v3.853c0,0.833,0.676,1.509,1.509,1.509s1.509-0.675,1.509-1.509v-3.853
				c0.439-0.123,0.858-0.296,1.247-0.517l2.724,2.725c0.294,0.294,0.68,0.442,1.067,0.442c0.386,0,0.772-0.147,1.066-0.441
				c0.589-0.589,0.589-1.544,0-2.134l-2.724-2.725c0.22-0.389,0.393-0.808,0.516-1.248h3.853c0.833,0,1.508-0.675,1.508-1.508
				C40.361,44.492,39.686,43.817,38.853,43.817z M29.594,47.926c-1.434,0-2.601-1.167-2.601-2.6c0-1.434,1.167-2.601,2.601-2.601
				c1.434,0,2.6,1.167,2.6,2.601C32.194,46.759,31.028,47.926,29.594,47.926z"/>
		</g>
		<g>
			<g>
				<path style="fill:#FFFFFF;" d="M50.157,116.834c-0.512,0-1.023-0.195-1.414-0.586c-0.781-0.781-0.781-2.047,0-2.828
					l11.667-11.667c0.78-0.781,2.048-0.781,2.828,0c0.781,0.781,0.781,2.047,0,2.828l-11.667,11.667
					C51.181,116.638,50.668,116.834,50.157,116.834z"/>
			</g>
			<g>
				<path style="fill:#FFFFFF;" d="M61.824,116.834c-0.512,0-1.023-0.195-1.414-0.586l-11.667-11.667
					c-0.781-0.781-0.781-2.047,0-2.828c0.78-0.781,2.047-0.781,2.828,0l11.667,11.667c0.781,0.781,0.781,2.047,0,2.828
					C62.848,116.638,62.336,116.834,61.824,116.834z"/>
			</g>
		</g>
		<g>
			<g>
				<path style="fill:#FFFFFF;" d="M451.932,387.118c-0.512,0-1.023-0.195-1.414-0.586c-0.781-0.781-0.781-2.047,0-2.828
					l11.668-11.667c0.781-0.781,2.047-0.781,2.828,0c0.781,0.781,0.781,2.047,0,2.828l-11.668,11.667
					C452.955,386.923,452.443,387.118,451.932,387.118z"/>
			</g>
			<g>
				<path style="fill:#FFFFFF;" d="M463.6,387.118c-0.512,0-1.023-0.195-1.414-0.586l-11.668-11.667
					c-0.781-0.781-0.781-2.047,0-2.828c0.781-0.781,2.047-0.781,2.828,0l11.668,11.667c0.781,0.781,0.781,2.047,0,2.828
					C464.623,386.923,464.111,387.118,463.6,387.118z"/>
			</g>
		</g>
		<g>
			<g>
				<path style="fill:#FFFFFF;" d="M417.564,66.324h-16.5c-1.104,0-2-0.896-2-2s0.896-2,2-2h16.5c1.104,0,2,0.896,2,2
					S418.669,66.324,417.564,66.324z"/>
			</g>
			<g>
				<path style="fill:#FFFFFF;" d="M409.314,74.574c-1.104,0-2-0.896-2-2v-16.5c0-1.104,0.896-2,2-2c1.104,0,2,0.896,2,2v16.5
					C411.314,73.678,410.419,74.574,409.314,74.574z"/>
			</g>
		</g>
	</g>
	<g>
		<text transform="matrix(1 0 0 1 50.1572 274.9712)" style="fill:#FFFFFF; font-family:'Quicksand-Regular'; font-size:30px;">Sorry, we are working on it</text>
	</g>
	<g>
		<text transform="matrix(1 0 0 1 102.4673 223.9917)"><tspan x="0" y="0" style="fill:none;stroke:#FFFFFF;stroke-width:12;stroke-linecap:round;stroke-linejoin:round;stroke-miterlimit:10; font-family:'Quicksand-Bold'; font-size:168.4133px; letter-spacing:-12;">4</tspan><tspan x="99.193" y="0" style="fill:none;stroke:#FFFFFF;stroke-width:12;stroke-linecap:round;stroke-linejoin:round;stroke-miterlimit:10; font-family:'Quicksand-Bold'; font-size:168.4133px; letter-spacing:-23;">0</tspan><tspan x="195.019" y="0" style="fill:none;stroke:#FFFFFF;stroke-width:12;stroke-linecap:round;stroke-linejoin:round;stroke-miterlimit:10; font-family:'Quicksand-Bold'; font-size:168.4133px; letter-spacing:-12;">4</tspan></text>
		<text transform="matrix(1 0 0 1 99.4673 219.9917)"><tspan x="0" y="0" style="fill:#E2664D; font-family:'Quicksand-Bold'; font-size:168.4133px; letter-spacing:-12;">4</tspan><tspan x="99.193" y="0" style="fill:#E2664D; font-family:'Quicksand-Bold'; font-size:168.4133px; letter-spacing:-23;">0</tspan><tspan x="195.019" y="0" style="fill:#E2664D; font-family:'Quicksand-Bold'; font-size:168.4133px; letter-spacing:-12;">4</tspan></text>
		<g>
			<text transform="matrix(1 0 0 1 99.4673 219.9917)"><tspan x="0" y="0" style="fill:none;stroke:#C6361E;stroke-width:4;stroke-linecap:round;stroke-linejoin:round;stroke-miterlimit:10; font-family:'Quicksand-Bold'; font-size:168.4133px; letter-spacing:-12;">4</tspan><tspan x="99.193" y="0" style="fill:none;stroke:#C6361E;stroke-width:4;stroke-linecap:round;stroke-linejoin:round;stroke-miterlimit:10; font-family:'Quicksand-Bold'; font-size:168.4133px; letter-spacing:-23;">0</tspan><tspan x="195.019" y="0" style="fill:none;stroke:#C6361E;stroke-width:4;stroke-linecap:round;stroke-linejoin:round;stroke-miterlimit:10; font-family:'Quicksand-Bold'; font-size:168.4133px; letter-spacing:-12;">4</tspan></text>
		</g>
	</g>
	<g>
		<g>
			<g>
				<g>
					<path style="fill:#FFFFFF;" d="M338,371.718H162c-2.761,0-5-2.238-5-5v-53.682c0-2.761,2.239-5,5-5h176c2.762,0,5,2.239,5,5
						v53.682C343,369.479,340.762,371.718,338,371.718z"/>
				</g>
				<g>
					<path style="fill:#F37962;" d="M171.581,320.647h-4.571c-1.523,0-2.758-1.235-2.758-2.759v-3.152
						c0-1.523,1.235-2.759,2.758-2.759h4.571c1.523,0,2.758,1.235,2.758,2.759v3.152
						C174.339,319.411,173.104,320.647,171.581,320.647z"/>
				</g>
				<g>
					<path style="fill:#F37962;" d="M332.99,320.647h-4.57c-1.523,0-2.759-1.235-2.759-2.759v-3.152
						c0-1.523,1.235-2.759,2.759-2.759h4.57c1.523,0,2.759,1.235,2.759,2.759v3.152C335.749,319.411,334.514,320.647,332.99,320.647
						z"/>
				</g>
				<g>
					<g>
						<path style="fill:#F37962;" d="M194.594,320.647h-4.571c-1.523,0-2.759-1.235-2.759-2.759v-3.152
							c0-1.523,1.235-2.759,2.759-2.759h4.571c1.523,0,2.758,1.235,2.758,2.759v3.152
							C197.352,319.411,196.118,320.647,194.594,320.647z"/>
					</g>
					<g>
						<path style="fill:#F37962;" d="M217.292,320.647h-4.571c-1.523,0-2.758-1.235-2.758-2.759v-3.152
							c0-1.523,1.235-2.759,2.758-2.759h4.571c1.523,0,2.758,1.235,2.758,2.759v3.152
							C220.051,319.411,218.816,320.647,217.292,320.647z"/>
					</g>
					<g>
						<path style="fill:#F37962;" d="M205.943,320.647h-4.571c-1.523,0-2.758-1.235-2.758-2.759v-3.152
							c0-1.523,1.235-2.759,2.758-2.759h4.571c1.523,0,2.758,1.235,2.758,2.759v3.152
							C208.702,319.411,207.467,320.647,205.943,320.647z"/>
					</g>
				</g>
				<g>
					<g>
						<path style="fill:#F37962;" d="M228.642,320.647h-4.571c-1.523,0-2.758-1.235-2.758-2.759v-3.152
							c0-1.523,1.235-2.759,2.758-2.759h4.571c1.523,0,2.758,1.235,2.758,2.759v3.152
							C231.4,319.411,230.165,320.647,228.642,320.647z"/>
					</g>
					<g>
						<path style="fill:#F37962;" d="M251.34,320.647h-4.571c-1.524,0-2.758-1.235-2.758-2.759v-3.152
							c0-1.523,1.235-2.759,2.758-2.759h4.571c1.523,0,2.759,1.235,2.759,2.759v3.152
							C254.099,319.411,252.863,320.647,251.34,320.647z"/>
					</g>
					<g>
						<path style="fill:#F37962;" d="M239.991,320.647h-4.571c-1.523,0-2.758-1.235-2.758-2.759v-3.152
							c0-1.523,1.235-2.759,2.758-2.759h4.571c1.523,0,2.758,1.235,2.758,2.759v3.152
							C242.749,319.411,241.514,320.647,239.991,320.647z"/>
					</g>
				</g>
				<g>
					<g>
						<path style="fill:#F37962;" d="M262.689,320.647h-4.571c-1.523,0-2.759-1.235-2.759-2.759v-3.152
							c0-1.523,1.235-2.759,2.759-2.759h4.571c1.523,0,2.758,1.235,2.758,2.759v3.152
							C265.447,319.411,264.213,320.647,262.689,320.647z"/>
					</g>
					<g>
						<path style="fill:#F37962;" d="M285.388,320.647h-4.571c-1.523,0-2.759-1.235-2.759-2.759v-3.152
							c0-1.523,1.235-2.759,2.759-2.759h4.571c1.523,0,2.758,1.235,2.758,2.759v3.152
							C288.146,319.411,286.911,320.647,285.388,320.647z"/>
					</g>
					<g>
						<path style="fill:#F37962;" d="M274.038,320.647h-4.571c-1.523,0-2.758-1.235-2.758-2.759v-3.152
							c0-1.523,1.234-2.759,2.758-2.759h4.571c1.523,0,2.759,1.235,2.759,2.759v3.152
							C276.797,319.411,275.561,320.647,274.038,320.647z"/>
					</g>
				</g>
				<g>
					<g>
						<path style="fill:#F37962;" d="M297.997,320.647h-4.57c-1.525,0-2.759-1.235-2.759-2.759v-3.152
							c0-1.523,1.234-2.759,2.759-2.759h4.57c1.523,0,2.759,1.235,2.759,2.759v3.152
							C300.756,319.411,299.52,320.647,297.997,320.647z"/>
					</g>
					<g>
						<path style="fill:#F37962;" d="M320.695,320.647h-4.57c-1.523,0-2.759-1.235-2.759-2.759v-3.152
							c0-1.523,1.235-2.759,2.759-2.759h4.57c1.523,0,2.759,1.235,2.759,2.759v3.152
							C323.454,319.411,322.219,320.647,320.695,320.647z"/>
					</g>
					<g>
						<path style="fill:#F37962;" d="M309.347,320.647h-4.571c-1.523,0-2.759-1.235-2.759-2.759v-3.152
							c0-1.523,1.235-2.759,2.759-2.759h4.571c1.523,0,2.759,1.235,2.759,2.759v3.152
							C312.105,319.411,310.87,320.647,309.347,320.647z"/>
					</g>
				</g>
				<g>
					<g>
						<g>
							<path style="fill:#F37962;" d="M171.896,332.31h-4.571c-1.523,0-2.759-1.234-2.759-2.758v-3.153
								c0-1.523,1.235-2.758,2.759-2.758h4.571c1.523,0,2.758,1.234,2.758,2.758v3.153
								C174.654,331.076,173.419,332.31,171.896,332.31z"/>
						</g>
						<g>
							<path style="fill:#F37962;" d="M194.594,332.31h-4.571c-1.523,0-2.759-1.234-2.759-2.758v-3.153
								c0-1.523,1.235-2.758,2.759-2.758h4.571c1.523,0,2.758,1.234,2.758,2.758v3.153
								C197.352,331.076,196.118,332.31,194.594,332.31z"/>
						</g>
						<g>
							<path style="fill:#F37962;" d="M183.245,332.31h-4.571c-1.523,0-2.758-1.234-2.758-2.758v-3.153
								c0-1.523,1.235-2.758,2.758-2.758h4.571c1.523,0,2.758,1.234,2.758,2.758v3.153
								C186.003,331.076,184.769,332.31,183.245,332.31z"/>
						</g>
					</g>
					<g>
						<g>
							<path style="fill:#F37962;" d="M205.943,332.31h-4.571c-1.523,0-2.758-1.234-2.758-2.758v-3.153
								c0-1.523,1.235-2.758,2.758-2.758h4.571c1.523,0,2.758,1.234,2.758,2.758v3.153
								C208.702,331.076,207.467,332.31,205.943,332.31z"/>
						</g>
						<g>
							<path style="fill:#F37962;" d="M228.642,332.31h-4.571c-1.523,0-2.758-1.234-2.758-2.758v-3.153
								c0-1.523,1.235-2.758,2.758-2.758h4.571c1.523,0,2.758,1.234,2.758,2.758v3.153C231.4,331.076,230.165,332.31,228.642,332.31
								z"/>
						</g>
						<g>
							<path style="fill:#F37962;" d="M217.292,332.31h-4.571c-1.523,0-2.758-1.234-2.758-2.758v-3.153
								c0-1.523,1.235-2.758,2.758-2.758h4.571c1.523,0,2.758,1.234,2.758,2.758v3.153
								C220.051,331.076,218.816,332.31,217.292,332.31z"/>
						</g>
					</g>
					<g>
						<g>
							<path style="fill:#F37962;" d="M239.991,332.31h-4.571c-1.523,0-2.758-1.234-2.758-2.758v-3.153
								c0-1.523,1.235-2.758,2.758-2.758h4.571c1.523,0,2.758,1.234,2.758,2.758v3.153
								C242.749,331.076,241.514,332.31,239.991,332.31z"/>
						</g>
						<g>
							<path style="fill:#F37962;" d="M262.689,332.31h-4.571c-1.523,0-2.759-1.234-2.759-2.758v-3.153
								c0-1.523,1.235-2.758,2.759-2.758h4.571c1.523,0,2.758,1.234,2.758,2.758v3.153
								C265.447,331.076,264.213,332.31,262.689,332.31z"/>
						</g>
						<g>
							<path style="fill:#F37962;" d="M274.038,332.31h-4.571c-1.523,0-2.758-1.234-2.758-2.758v-3.153
								c0-1.523,1.234-2.758,2.758-2.758h4.571c1.523,0,2.759,1.234,2.759,2.758v3.153
								C276.797,331.076,275.561,332.31,274.038,332.31z"/>
						</g>
						<g>
							<path style="fill:#F37962;" d="M251.34,332.31h-4.571c-1.524,0-2.758-1.234-2.758-2.758v-3.153
								c0-1.523,1.235-2.758,2.758-2.758h4.571c1.523,0,2.759,1.234,2.759,2.758v3.153
								C254.099,331.076,252.863,332.31,251.34,332.31z"/>
						</g>
					</g>
				</g>
				<g>
					<g>
						<g>
							<path style="fill:#F37962;" d="M171.896,343.66h-4.571c-1.523,0-2.759-1.235-2.759-2.759v-3.152
								c0-1.523,1.235-2.759,2.759-2.759h4.571c1.523,0,2.758,1.235,2.758,2.759v3.152
								C174.654,342.425,173.419,343.66,171.896,343.66z"/>
						</g>
						<g>
							<path style="fill:#F37962;" d="M194.594,343.66h-4.571c-1.523,0-2.759-1.235-2.759-2.759v-3.152
								c0-1.523,1.235-2.759,2.759-2.759h4.571c1.523,0,2.758,1.235,2.758,2.759v3.152
								C197.352,342.425,196.118,343.66,194.594,343.66z"/>
						</g>
						<g>
							<path style="fill:#F37962;" d="M183.245,343.66h-4.571c-1.523,0-2.758-1.235-2.758-2.759v-3.152
								c0-1.523,1.235-2.759,2.758-2.759h4.571c1.523,0,2.758,1.235,2.758,2.759v3.152
								C186.003,342.425,184.769,343.66,183.245,343.66z"/>
						</g>
					</g>
					<g>
						<g>
							<path style="fill:#F37962;" d="M205.943,343.66h-4.571c-1.523,0-2.758-1.235-2.758-2.759v-3.152
								c0-1.523,1.235-2.759,2.758-2.759h4.571c1.523,0,2.758,1.235,2.758,2.759v3.152
								C208.702,342.425,207.467,343.66,205.943,343.66z"/>
						</g>
						<g>
							<path style="fill:#F37962;" d="M228.642,343.66h-4.571c-1.523,0-2.758-1.235-2.758-2.759v-3.152
								c0-1.523,1.235-2.759,2.758-2.759h4.571c1.523,0,2.758,1.235,2.758,2.759v3.152C231.4,342.425,230.165,343.66,228.642,343.66
								z"/>
						</g>
						<g>
							<path style="fill:#F37962;" d="M217.292,343.66h-4.571c-1.523,0-2.758-1.235-2.758-2.759v-3.152
								c0-1.523,1.235-2.759,2.758-2.759h4.571c1.523,0,2.758,1.235,2.758,2.759v3.152
								C220.051,342.425,218.816,343.66,217.292,343.66z"/>
						</g>
					</g>
					<g>
						<g>
							<path style="fill:#F37962;" d="M239.991,343.66h-4.571c-1.523,0-2.758-1.235-2.758-2.759v-3.152
								c0-1.523,1.235-2.759,2.758-2.759h4.571c1.523,0,2.758,1.235,2.758,2.759v3.152
								C242.749,342.425,241.514,343.66,239.991,343.66z"/>
						</g>
						<g>
							<path style="fill:#F37962;" d="M262.689,343.66h-4.571c-1.523,0-2.759-1.235-2.759-2.759v-3.152
								c0-1.523,1.235-2.759,2.759-2.759h4.571c1.523,0,2.758,1.235,2.758,2.759v3.152
								C265.447,342.425,264.213,343.66,262.689,343.66z"/>
						</g>
						<g>
							<path style="fill:#F37962;" d="M274.038,343.66h-4.571c-1.523,0-2.758-1.235-2.758-2.759v-3.152
								c0-1.523,1.234-2.759,2.758-2.759h4.571c1.523,0,2.759,1.235,2.759,2.759v3.152
								C276.797,342.425,275.561,343.66,274.038,343.66z"/>
						</g>
						<g>
							<path style="fill:#F37962;" d="M251.34,343.66h-4.571c-1.524,0-2.758-1.235-2.758-2.759v-3.152
								c0-1.523,1.235-2.759,2.758-2.759h4.571c1.523,0,2.759,1.235,2.759,2.759v3.152
								C254.099,342.425,252.863,343.66,251.34,343.66z"/>
						</g>
					</g>
				</g>
				<g>
					<g>
						<g>
							<path style="fill:#F37962;" d="M171.896,355.009h-4.571c-1.523,0-2.759-1.234-2.759-2.758v-3.153
								c0-1.523,1.235-2.758,2.759-2.758h4.571c1.523,0,2.758,1.234,2.758,2.758v3.153
								C174.654,353.774,173.419,355.009,171.896,355.009z"/>
						</g>
						<g>
							<path style="fill:#F37962;" d="M194.594,355.009h-4.571c-1.523,0-2.759-1.234-2.759-2.758v-3.153
								c0-1.523,1.235-2.758,2.759-2.758h4.571c1.523,0,2.758,1.234,2.758,2.758v3.153
								C197.352,353.774,196.118,355.009,194.594,355.009z"/>
						</g>
						<g>
							<path style="fill:#F37962;" d="M183.245,355.009h-4.571c-1.523,0-2.758-1.234-2.758-2.758v-3.153
								c0-1.523,1.235-2.758,2.758-2.758h4.571c1.523,0,2.758,1.234,2.758,2.758v3.153
								C186.003,353.774,184.769,355.009,183.245,355.009z"/>
						</g>
					</g>
					<g>
						<g>
							<path style="fill:#F37962;" d="M205.943,355.009h-4.571c-1.523,0-2.758-1.234-2.758-2.758v-3.153
								c0-1.523,1.235-2.758,2.758-2.758h4.571c1.523,0,2.758,1.234,2.758,2.758v3.153
								C208.702,353.774,207.467,355.009,205.943,355.009z"/>
						</g>
						<g>
							<path style="fill:#F37962;" d="M228.642,355.009h-4.571c-1.523,0-2.758-1.234-2.758-2.758v-3.153
								c0-1.523,1.235-2.758,2.758-2.758h4.571c1.523,0,2.758,1.234,2.758,2.758v3.153
								C231.4,353.774,230.165,355.009,228.642,355.009z"/>
						</g>
						<g>
							<path style="fill:#F37962;" d="M217.292,355.009h-4.571c-1.523,0-2.758-1.234-2.758-2.758v-3.153
								c0-1.523,1.235-2.758,2.758-2.758h4.571c1.523,0,2.758,1.234,2.758,2.758v3.153
								C220.051,353.774,218.816,355.009,217.292,355.009z"/>
						</g>
					</g>
					<g>
						<g>
							<path style="fill:#F37962;" d="M239.991,355.009h-4.571c-1.523,0-2.758-1.234-2.758-2.758v-3.153
								c0-1.523,1.235-2.758,2.758-2.758h4.571c1.523,0,2.758,1.234,2.758,2.758v3.153
								C242.749,353.774,241.514,355.009,239.991,355.009z"/>
						</g>
						<g>
							<path style="fill:#F37962;" d="M274.038,355.009h-14.344c-1.523,0-2.759-1.234-2.759-2.758v-3.153
								c0-1.523,1.235-2.758,2.759-2.758h14.344c1.523,0,2.759,1.234,2.759,2.758v3.153
								C276.797,353.774,275.561,355.009,274.038,355.009z"/>
						</g>
						<g>
							<path style="fill:#F37962;" d="M251.34,355.009h-4.571c-1.524,0-2.758-1.234-2.758-2.758v-3.153
								c0-1.523,1.235-2.758,2.758-2.758h4.571c1.523,0,2.759,1.234,2.759,2.758v3.153
								C254.099,353.774,252.863,355.009,251.34,355.009z"/>
						</g>
					</g>
				</g>
				<g>
					<g>
						<g>
							<path style="fill:#F37962;" d="M171.896,366.358h-4.571c-1.523,0-2.759-1.235-2.759-2.759v-3.152
								c0-1.523,1.235-2.759,2.759-2.759h4.571c1.523,0,2.758,1.235,2.758,2.759v3.152
								C174.654,365.123,173.419,366.358,171.896,366.358z"/>
						</g>
						<g>
							<path style="fill:#F37962;" d="M194.594,366.358h-4.571c-1.523,0-2.759-1.235-2.759-2.759v-3.152
								c0-1.523,1.235-2.759,2.759-2.759h4.571c1.523,0,2.758,1.235,2.758,2.759v3.152
								C197.352,365.123,196.118,366.358,194.594,366.358z"/>
						</g>
						<g>
							<path style="fill:#F37962;" d="M183.245,366.358h-4.571c-1.523,0-2.758-1.235-2.758-2.759v-3.152
								c0-1.523,1.235-2.759,2.758-2.759h4.571c1.523,0,2.758,1.235,2.758,2.759v3.152
								C186.003,365.123,184.769,366.358,183.245,366.358z"/>
						</g>
					</g>
					<g>
						<path style="fill:#F37962;" d="M285.388,366.358h-4.571c-1.523,0-2.759-1.235-2.759-2.759v-3.152
							c0-1.523,1.235-2.759,2.759-2.759h4.571c1.523,0,2.758,1.235,2.758,2.759v3.152
							C288.146,365.123,286.911,366.358,285.388,366.358z"/>
					</g>
					<g>
						<path style="fill:#F37962;" d="M308.086,366.358h-4.571c-1.523,0-2.759-1.235-2.759-2.759v-3.152
							c0-1.523,1.235-2.759,2.759-2.759h4.571c1.523,0,2.758,1.235,2.758,2.759v3.152
							C310.844,365.123,309.609,366.358,308.086,366.358z"/>
					</g>
					<g>
						<path style="fill:#F37962;" d="M296.736,366.358h-4.571c-1.523,0-2.758-1.235-2.758-2.759v-3.152
							c0-1.523,1.234-2.759,2.758-2.759h4.571c1.523,0,2.759,1.235,2.759,2.759v3.152
							C299.495,365.123,298.26,366.358,296.736,366.358z"/>
					</g>
					<g>
						<path style="fill:#F37962;" d="M319.435,366.358h-4.571c-1.523,0-2.758-1.235-2.758-2.759v-3.152
							c0-1.523,1.234-2.759,2.758-2.759h4.571c1.523,0,2.759,1.235,2.759,2.759v3.152
							C322.193,365.123,320.958,366.358,319.435,366.358z"/>
					</g>
					<g>
						<path style="fill:#F37962;" d="M262.689,366.358h-4.571c-1.523,0-2.759-1.235-2.759-2.759v-3.152
							c0-1.523,1.235-2.759,2.759-2.759h4.571c1.523,0,2.758,1.235,2.758,2.759v3.152
							C265.447,365.123,264.213,366.358,262.689,366.358z"/>
					</g>
					<g>
						<path style="fill:#F37962;" d="M274.038,366.358h-4.571c-1.523,0-2.758-1.235-2.758-2.759v-3.152
							c0-1.523,1.234-2.759,2.758-2.759h4.571c1.523,0,2.759,1.235,2.759,2.759v3.152
							C276.797,365.123,275.561,366.358,274.038,366.358z"/>
					</g>
					<g>
						<path style="fill:#F37962;" d="M330.784,366.358h-4.571c-1.523,0-2.759-1.235-2.759-2.759v-3.152
							c0-1.523,1.235-2.759,2.759-2.759h4.571c1.523,0,2.758,1.235,2.758,2.759v3.152
							C333.542,365.123,332.308,366.358,330.784,366.358z"/>
					</g>
				</g>
				<g>
					<path style="fill:#F37962;" d="M286.648,355.009h-4.571c-1.523,0-2.759-1.234-2.759-2.758v-3.153
						c0-1.523,1.235-2.758,2.759-2.758h4.571c1.523,0,2.759,1.234,2.759,2.758v3.153
						C289.407,353.774,288.172,355.009,286.648,355.009z"/>
				</g>
				<g>
					<path style="fill:#F37962;" d="M297.997,355.009h-4.57c-1.525,0-2.759-1.234-2.759-2.758v-3.153
						c0-1.523,1.234-2.758,2.759-2.758h4.57c1.523,0,2.759,1.234,2.759,2.758v3.153C300.756,353.774,299.52,355.009,297.997,355.009
						z"/>
				</g>
				<g>
					<path style="fill:#F37962;" d="M332.202,355.009h-27.427c-1.523,0-2.759-1.234-2.759-2.758v-3.153
						c0-1.523,1.235-2.758,2.759-2.758h27.427c1.523,0,2.759,1.234,2.759,2.758v3.153
						C334.961,353.774,333.726,355.009,332.202,355.009z"/>
				</g>
				<g>
					<g>
						<path style="fill:#F37962;" d="M310.292,344.212h-4.571c-1.523,0-2.758-1.235-2.758-2.759v-3.152
							c0-1.523,1.234-2.759,2.758-2.759h4.571c1.523,0,2.759,1.235,2.759,2.759v3.152
							C313.051,342.977,311.815,344.212,310.292,344.212z"/>
					</g>
					<g>
						<path style="fill:#F37962;" d="M332.99,344.212h-4.57c-1.523,0-2.759-1.235-2.759-2.759v-3.152
							c0-1.523,1.235-2.759,2.759-2.759h4.57c1.523,0,2.759,1.235,2.759,2.759v3.152
							C335.749,342.977,334.514,344.212,332.99,344.212z"/>
					</g>
					<g>
						<path style="fill:#F37962;" d="M321.642,344.212h-4.571c-1.523,0-2.759-1.235-2.759-2.759v-3.152
							c0-1.523,1.235-2.759,2.759-2.759h4.571c1.523,0,2.759,1.235,2.759,2.759v3.152
							C324.4,342.977,323.165,344.212,321.642,344.212z"/>
					</g>
				</g>
				<g>
					<g>
						<path style="fill:#F37962;" d="M310.292,332.862h-4.571c-1.523,0-2.758-1.234-2.758-2.758v-3.153
							c0-1.523,1.234-2.758,2.758-2.758h4.571c1.523,0,2.759,1.234,2.759,2.758v3.153
							C313.051,331.628,311.815,332.862,310.292,332.862z"/>
					</g>
					<g>
						<path style="fill:#F37962;" d="M332.99,332.862h-4.57c-1.523,0-2.759-1.234-2.759-2.758v-3.153
							c0-1.523,1.235-2.758,2.759-2.758h4.57c1.523,0,2.759,1.234,2.759,2.758v3.153
							C335.749,331.628,334.514,332.862,332.99,332.862z"/>
					</g>
					<g>
						<path style="fill:#F37962;" d="M321.642,332.862h-4.571c-1.523,0-2.759-1.234-2.759-2.758v-3.153
							c0-1.523,1.235-2.758,2.759-2.758h4.571c1.523,0,2.759,1.234,2.759,2.758v3.153
							C324.4,331.628,323.165,332.862,321.642,332.862z"/>
					</g>
				</g>
				<g>
					<path style="fill:#F37962;" d="M296.736,343.817h-14.659c-1.523,0-2.759-1.234-2.759-2.758v-14.66
						c0-1.523,1.235-2.758,2.759-2.758h14.659c1.523,0,2.759,1.234,2.759,2.758v14.66
						C299.495,342.583,298.26,343.817,296.736,343.817z"/>
				</g>
				<g>
					<path style="fill:#F37962;" d="M251.34,366.358h-49.81c-1.523,0-2.759-1.235-2.759-2.759v-3.152
						c0-1.523,1.235-2.759,2.759-2.759h49.81c1.523,0,2.759,1.235,2.759,2.759v3.152
						C254.099,365.123,252.863,366.358,251.34,366.358z"/>
				</g>
			</g>
			<g>
				<g>
					<path style="fill:#F8E6D2;" d="M233.963,394.958c-0.56-0.374-1.21-0.572-1.881-0.572c-1.138,0-2.193,0.565-2.823,1.512
						c-0.561,0.841-0.608,1.524-0.711,3.022c-0.432,6.257-1.607,10.101-3.004,12.471v-31.48c0-1.87-1.521-3.392-3.392-3.392
						c-1.87,0-3.391,1.521-3.391,3.392v18.705h-0.783v-22.488c0-1.87-1.521-3.392-3.392-3.392c-1.87,0-3.392,1.521-3.392,3.392
						v22.488h-0.783v-19.966c0-1.87-1.522-3.392-3.391-3.392c-1.87,0-3.392,1.521-3.392,3.392v19.966h-0.943v-14.708
						c0-1.87-1.521-3.392-3.391-3.392c-1.87,0-3.392,1.522-3.392,3.392v39.933c0,1.555,1.058,2.854,2.487,3.254v4.05h25.536v-8.423
						c0.743-0.46,1.292-1.193,1.508-2.063c5.774-2.758,9.094-9.87,9.882-21.271l0.019-0.274c0.013-0.205,0.024-0.375,0.036-0.506
						C235.715,397.231,235.152,395.75,233.963,394.958z"/>
					<g>
						<path style="fill:#3B3A48;" d="M194.965,422.579c0.341,0.104,30.326,0,30.326,0v19.598h-30.326V423.84"/>
					</g>
				</g>
				<g>
					<path style="fill:#F8E6D2;" d="M266.037,394.958c0.559-0.374,1.21-0.572,1.881-0.572c1.138,0,2.193,0.565,2.823,1.512
						c0.562,0.841,0.608,1.524,0.711,3.022c0.433,6.257,1.608,10.101,3.005,12.471v-31.48c0-1.87,1.521-3.392,3.391-3.392
						c1.87,0,3.392,1.521,3.392,3.392v18.705h0.783v-22.488c0-1.87,1.521-3.392,3.392-3.392c1.87,0,3.392,1.521,3.392,3.392v22.488
						h0.783v-19.966c0-1.87,1.521-3.392,3.392-3.392c1.869,0,3.391,1.521,3.391,3.392v19.966h0.943v-14.708
						c0-1.87,1.521-3.392,3.391-3.392c1.871,0,3.393,1.522,3.393,3.392v39.933c0,1.555-1.059,2.854-2.487,3.254v4.05h-25.536v-8.423
						c-0.742-0.46-1.291-1.193-1.508-2.063c-5.773-2.758-9.094-9.87-9.881-21.271l-0.02-0.274c-0.013-0.205-0.023-0.375-0.035-0.506
						C264.285,397.231,264.848,395.75,266.037,394.958z"/>
					<g>
						<path style="fill:#3B3A48;" d="M305.035,422.579c-0.341,0.104-30.326,0-30.326,0v19.598h30.326V423.84"/>
					</g>
				</g>
			</g>
		</g>
		<g>
			<g>
				<ellipse style="fill:#FFFFFF;" cx="373.593" cy="378.642" rx="12.331" ry="17.452"/>
				
					<line style="fill:none;stroke:#76B3D2;stroke-linecap:round;stroke-linejoin:round;stroke-miterlimit:10;" x1="362.896" y1="374.515" x2="384.289" y2="374.515"/>
				
					<ellipse style="fill:none;stroke:#76B3D2;stroke-linecap:round;stroke-linejoin:round;stroke-miterlimit:10;" cx="373.593" cy="367.929" rx="1.938" ry="4.017"/>
			</g>
			<path style="fill:none;stroke:#FFFFFF;stroke-width:2;stroke-linecap:round;stroke-linejoin:round;stroke-miterlimit:10;" d="
				M373.593,361.19c0-7.523,0-10.869,0-17.529c0-6.66,5.407-5.993,17.407-5.993c5.633,0,11.982-0.545,11.982-11.668
				c0-11.124-2.357-14.022-24.649-14.022c-27.666,0-27-7.644-27-15.977"/>
		</g>
	</g>
</g>
<g id="DESIGNED_BY_FREEPIK">
	<g id="XMLID_76_">
		<g id="XMLID_929_">
			<path id="XMLID_958_" style="fill:#FFFFFF;" d="M181.087,471.606c-0.246,0-0.435,0.085-0.567,0.255
				c-0.133,0.17-0.199,0.422-0.199,0.754v2.392c-0.304-0.331-0.617-0.578-0.937-0.739c-0.321-0.159-0.715-0.239-1.182-0.239
				c-0.807,0-1.458,0.283-1.953,0.848c-0.494,0.566-0.742,1.356-0.742,2.369c0,0.479,0.063,0.924,0.188,1.335
				c0.124,0.412,0.307,0.77,0.549,1.074c0.241,0.305,0.526,0.54,0.857,0.704c0.33,0.164,0.689,0.246,1.078,0.246
				c0.293,0,0.563-0.04,0.809-0.122c0.247-0.081,0.477-0.2,0.689-0.356c0.212-0.156,0.427-0.359,0.644-0.608v0.161
				c0,0.296,0.072,0.524,0.217,0.685c0.145,0.161,0.328,0.241,0.549,0.241c0.226,0,0.409-0.078,0.552-0.232
				c0.143-0.154,0.213-0.386,0.213-0.694v-7.147c0-0.306-0.066-0.534-0.199-0.691C181.521,471.685,181.332,471.606,181.087,471.606z
				 M180.021,478.447c-0.141,0.306-0.329,0.533-0.564,0.682c-0.236,0.149-0.496,0.224-0.781,0.224c-0.281,0-0.54-0.079-0.778-0.236
				c-0.237-0.155-0.424-0.388-0.561-0.696c-0.136-0.309-0.205-0.683-0.205-1.122c0-0.415,0.064-0.78,0.193-1.095
				c0.128-0.315,0.31-0.556,0.543-0.724c0.233-0.168,0.499-0.253,0.795-0.253c0.285,0,0.547,0.082,0.787,0.246
				c0.239,0.165,0.429,0.402,0.569,0.712c0.141,0.311,0.21,0.683,0.21,1.113C180.232,477.757,180.163,478.14,180.021,478.447z"/>
			<path id="XMLID_954_" style="fill:#FFFFFF;" d="M188.452,477.527c0.233-0.122,0.35-0.385,0.35-0.793
				c0-0.439-0.113-0.871-0.338-1.294c-0.225-0.423-0.564-0.77-1.019-1.035c-0.453-0.268-0.996-0.4-1.628-0.4
				c-0.487,0-0.93,0.077-1.33,0.233c-0.4,0.157-0.737,0.381-1.009,0.674c-0.273,0.293-0.48,0.645-0.623,1.054
				c-0.143,0.409-0.214,0.854-0.214,1.332c0,1.017,0.289,1.822,0.867,2.416c0.577,0.593,1.387,0.891,2.427,0.891
				c0.456,0,0.858-0.06,1.207-0.179c0.352-0.119,0.641-0.269,0.874-0.448c0.231-0.18,0.404-0.367,0.519-0.563
				c0.115-0.196,0.172-0.367,0.172-0.514c0-0.166-0.052-0.294-0.155-0.386c-0.103-0.091-0.237-0.137-0.403-0.137
				c-0.154,0-0.273,0.035-0.356,0.107c-0.202,0.19-0.366,0.34-0.492,0.452c-0.126,0.11-0.265,0.215-0.415,0.311
				c-0.15,0.098-0.305,0.167-0.466,0.214c-0.16,0.045-0.337,0.067-0.531,0.067c-0.289,0-0.553-0.07-0.792-0.213
				c-0.239-0.143-0.432-0.354-0.576-0.636c-0.145-0.281-0.219-0.604-0.222-0.973h3.168
				C187.89,477.708,188.219,477.647,188.452,477.527z M184.297,476.788c0.056-0.546,0.212-0.959,0.472-1.238
				c0.259-0.279,0.59-0.418,0.994-0.418c0.423,0,0.764,0.138,1.024,0.412c0.259,0.275,0.409,0.689,0.448,1.244H184.297z"/>
			<path id="XMLID_952_" style="fill:#FFFFFF;" d="M193.878,477.09c-0.319-0.169-0.729-0.315-1.231-0.439
				c-0.424-0.102-0.756-0.189-0.997-0.261c-0.242-0.07-0.434-0.16-0.576-0.27c-0.143-0.108-0.213-0.248-0.213-0.419
				c0-0.186,0.097-0.341,0.291-0.465c0.194-0.126,0.437-0.188,0.73-0.188c0.286,0,0.511,0.047,0.677,0.143
				c0.166,0.095,0.31,0.222,0.433,0.38c0.151,0.189,0.284,0.332,0.401,0.427c0.116,0.095,0.258,0.144,0.424,0.144
				c0.23,0,0.408-0.061,0.532-0.179c0.124-0.119,0.186-0.271,0.186-0.457c0-0.171-0.058-0.345-0.175-0.522
				c-0.116-0.178-0.286-0.34-0.51-0.486c-0.223-0.147-0.502-0.264-0.837-0.35c-0.333-0.088-0.71-0.132-1.13-0.132
				c-0.535,0-0.99,0.086-1.367,0.259c-0.378,0.173-0.665,0.403-0.858,0.691c-0.194,0.289-0.291,0.596-0.291,0.92
				c0,0.363,0.105,0.671,0.315,0.92c0.21,0.249,0.489,0.45,0.84,0.602c0.35,0.153,0.804,0.299,1.362,0.437
				c0.494,0.119,0.849,0.244,1.065,0.374c0.216,0.132,0.323,0.338,0.323,0.623c0,0.187-0.104,0.351-0.311,0.496
				c-0.208,0.145-0.474,0.216-0.798,0.216c-0.4,0-0.715-0.07-0.947-0.213c-0.232-0.143-0.431-0.357-0.597-0.647
				c-0.082-0.149-0.169-0.267-0.261-0.35c-0.091-0.083-0.221-0.125-0.39-0.125c-0.194,0-0.355,0.064-0.481,0.19
				c-0.128,0.127-0.19,0.278-0.19,0.457c0,0.27,0.099,0.537,0.296,0.805c0.198,0.266,0.505,0.489,0.92,0.667
				c0.415,0.178,0.914,0.268,1.495,0.268c0.609,0,1.127-0.082,1.552-0.246c0.425-0.164,0.747-0.406,0.964-0.725
				c0.218-0.318,0.327-0.702,0.327-1.149c0-0.296-0.082-0.56-0.246-0.791C194.438,477.461,194.197,477.26,193.878,477.09z"/>
			<path id="XMLID_950_" style="fill:#FFFFFF;" d="M196.486,474.016c-0.238,0-0.431,0.081-0.579,0.244
				c-0.149,0.162-0.222,0.403-0.222,0.724v4.635c0,0.317,0.073,0.56,0.222,0.73c0.148,0.171,0.341,0.256,0.579,0.256
				c0.238,0,0.433-0.083,0.588-0.249c0.154-0.166,0.232-0.412,0.232-0.737v-4.682c0-0.289-0.078-0.515-0.232-0.677
				C196.919,474.097,196.724,474.016,196.486,474.016z"/>
			<path id="XMLID_949_" style="fill:#FFFFFF;" d="M196.504,471.678c-0.217,0-0.409,0.073-0.573,0.223
				c-0.165,0.148-0.246,0.337-0.246,0.566c0,0.254,0.08,0.45,0.24,0.588c0.16,0.139,0.353,0.208,0.579,0.208
				c0.217,0,0.405-0.07,0.564-0.211c0.158-0.141,0.238-0.335,0.238-0.585c0-0.257-0.081-0.452-0.244-0.587
				C196.9,471.744,196.714,471.678,196.504,471.678z"/>
			<path id="XMLID_945_" style="fill:#FFFFFF;" d="M203.626,474.016c-0.217,0-0.396,0.078-0.535,0.232
				c-0.139,0.155-0.208,0.372-0.208,0.653v0.22c-0.289-0.376-0.602-0.651-0.938-0.828c-0.336-0.176-0.734-0.264-1.193-0.264
				c-0.384,0-0.736,0.068-1.056,0.203c-0.321,0.138-0.604,0.341-0.849,0.609c-0.245,0.269-0.433,0.6-0.566,0.992
				c-0.133,0.391-0.199,0.83-0.199,1.317c0,0.652,0.108,1.228,0.327,1.727c0.217,0.499,0.529,0.886,0.934,1.163
				c0.406,0.277,0.88,0.416,1.422,0.416c0.45,0,0.84-0.091,1.166-0.273c0.327-0.182,0.615-0.447,0.864-0.796
				c-0.008,0.531-0.02,0.915-0.036,1.155c-0.016,0.239-0.07,0.464-0.164,0.673c-0.093,0.21-0.255,0.373-0.486,0.49
				c-0.231,0.117-0.557,0.175-0.977,0.175c-0.205,0-0.387-0.02-0.545-0.056c-0.159-0.038-0.294-0.096-0.406-0.172
				c-0.112-0.078-0.216-0.17-0.309-0.279c-0.093-0.108-0.183-0.218-0.27-0.324c-0.178-0.209-0.386-0.314-0.624-0.314
				c-0.189,0-0.352,0.063-0.486,0.188c-0.135,0.124-0.202,0.285-0.202,0.482c0,0.262,0.119,0.517,0.357,0.764
				c0.238,0.247,0.576,0.448,1.014,0.605c0.439,0.156,0.938,0.234,1.496,0.234c0.609,0,1.119-0.062,1.528-0.185
				c0.409-0.122,0.741-0.311,0.994-0.563c0.253-0.254,0.438-0.574,0.551-0.961c0.115-0.389,0.173-0.851,0.173-1.39v-4.706
				c0-0.384-0.051-0.678-0.155-0.882C204.146,474.118,203.938,474.016,203.626,474.016z M202.6,478.382
				c-0.151,0.29-0.346,0.508-0.586,0.652c-0.239,0.145-0.493,0.217-0.762,0.217c-0.455,0-0.826-0.168-1.113-0.505
				c-0.287-0.336-0.43-0.833-0.43-1.489c0-0.648,0.139-1.15,0.418-1.502c0.279-0.352,0.649-0.528,1.113-0.528
				c0.475,0,0.857,0.185,1.148,0.553c0.291,0.367,0.436,0.883,0.436,1.543C202.825,477.737,202.749,478.091,202.6,478.382z"/>
			<path id="XMLID_944_" style="fill:#FFFFFF;" d="M210.978,475.084c-0.165-0.34-0.417-0.603-0.753-0.789
				c-0.337-0.185-0.718-0.279-1.146-0.279c-0.44,0-0.828,0.088-1.166,0.265c-0.339,0.176-0.651,0.452-0.935,0.828v-0.196
				c0-0.193-0.034-0.358-0.104-0.493c-0.07-0.133-0.162-0.234-0.276-0.302c-0.115-0.067-0.244-0.102-0.387-0.102
				c-0.233,0-0.417,0.076-0.552,0.229c-0.134,0.152-0.201,0.383-0.201,0.692v4.682c0,0.317,0.076,0.56,0.226,0.73
				c0.15,0.171,0.342,0.256,0.576,0.256c0.241,0,0.438-0.082,0.59-0.246c0.152-0.164,0.228-0.411,0.228-0.74v-2.029
				c0-0.661,0.04-1.111,0.119-1.353c0.11-0.301,0.284-0.537,0.522-0.71c0.237-0.173,0.5-0.258,0.788-0.258
				c0.444,0,0.74,0.142,0.888,0.424c0.148,0.283,0.223,0.692,0.223,1.226v2.7c0,0.317,0.074,0.56,0.226,0.73
				c0.15,0.171,0.346,0.256,0.587,0.256c0.238,0,0.431-0.083,0.579-0.249c0.148-0.166,0.223-0.412,0.223-0.737v-3.015
				c0-0.356-0.017-0.648-0.048-0.878C211.155,475.496,211.085,475.282,210.978,475.084z"/>
			<path id="XMLID_939_" style="fill:#FFFFFF;" d="M217.821,477.527c0.233-0.122,0.35-0.385,0.35-0.793
				c0-0.439-0.113-0.871-0.338-1.294c-0.226-0.423-0.565-0.77-1.019-1.035c-0.453-0.268-0.996-0.4-1.628-0.4
				c-0.487,0-0.93,0.077-1.33,0.233c-0.399,0.157-0.736,0.381-1.009,0.674c-0.274,0.293-0.481,0.645-0.624,1.054
				c-0.142,0.409-0.213,0.854-0.213,1.332c0,1.017,0.289,1.822,0.866,2.416c0.578,0.593,1.387,0.891,2.428,0.891
				c0.455,0,0.858-0.06,1.208-0.179c0.351-0.119,0.64-0.269,0.872-0.448c0.232-0.18,0.405-0.367,0.52-0.563
				c0.115-0.196,0.172-0.367,0.172-0.514c0-0.166-0.051-0.294-0.154-0.386c-0.103-0.091-0.238-0.137-0.404-0.137
				c-0.154,0-0.273,0.035-0.357,0.107c-0.201,0.19-0.366,0.34-0.492,0.452c-0.128,0.11-0.266,0.215-0.415,0.311
				c-0.151,0.098-0.307,0.167-0.466,0.214c-0.161,0.045-0.338,0.067-0.532,0.067c-0.288,0-0.553-0.07-0.792-0.213
				c-0.239-0.143-0.431-0.354-0.576-0.636c-0.145-0.281-0.218-0.604-0.223-0.973h3.169
				C217.26,477.708,217.588,477.647,217.821,477.527z M213.666,476.788c0.056-0.546,0.212-0.959,0.471-1.238
				c0.259-0.279,0.591-0.418,0.995-0.418c0.424,0,0.765,0.138,1.024,0.412c0.259,0.275,0.409,0.689,0.448,1.244H213.666z"/>
			<path id="XMLID_936_" style="fill:#FFFFFF;" d="M224.206,471.606c-0.245,0-0.434,0.085-0.567,0.255
				c-0.132,0.17-0.199,0.422-0.199,0.754v2.392c-0.304-0.331-0.617-0.578-0.938-0.739c-0.32-0.159-0.714-0.239-1.181-0.239
				c-0.808,0-1.458,0.283-1.953,0.848c-0.495,0.566-0.741,1.356-0.741,2.369c0,0.479,0.062,0.924,0.187,1.335
				c0.124,0.412,0.308,0.77,0.549,1.074c0.241,0.305,0.527,0.54,0.857,0.704c0.33,0.164,0.689,0.246,1.077,0.246
				c0.293,0,0.563-0.04,0.811-0.122c0.247-0.081,0.476-0.2,0.688-0.356c0.211-0.156,0.426-0.359,0.644-0.608v0.161
				c0,0.296,0.072,0.524,0.217,0.685c0.145,0.161,0.328,0.241,0.549,0.241c0.226,0,0.41-0.078,0.552-0.232
				c0.143-0.154,0.213-0.386,0.213-0.694v-7.147c0-0.306-0.065-0.534-0.199-0.691C224.641,471.685,224.452,471.606,224.206,471.606z
				 M223.141,478.447c-0.14,0.306-0.328,0.533-0.564,0.682c-0.235,0.149-0.495,0.224-0.781,0.224c-0.281,0-0.54-0.079-0.776-0.236
				c-0.238-0.155-0.425-0.388-0.562-0.696c-0.137-0.309-0.205-0.683-0.205-1.122c0-0.415,0.064-0.78,0.193-1.095
				c0.129-0.315,0.31-0.556,0.543-0.724c0.233-0.168,0.5-0.253,0.795-0.253c0.285,0,0.547,0.082,0.787,0.246
				c0.239,0.165,0.43,0.402,0.57,0.712c0.141,0.311,0.21,0.683,0.21,1.113C223.352,477.757,223.282,478.14,223.141,478.447z"/>
			<path id="XMLID_933_" style="fill:#FFFFFF;" d="M233.586,474.41c-0.406-0.255-0.877-0.382-1.415-0.382
				c-0.467,0-0.859,0.084-1.175,0.252c-0.317,0.168-0.627,0.41-0.932,0.727v-2.475c0-0.297-0.068-0.524-0.202-0.685
				c-0.135-0.16-0.326-0.24-0.576-0.24c-0.237,0-0.423,0.084-0.555,0.252c-0.133,0.168-0.198,0.417-0.198,0.745v7.075
				c0,0.304,0.068,0.535,0.205,0.691c0.136,0.156,0.319,0.234,0.549,0.234c0.226,0,0.412-0.078,0.558-0.234
				c0.146-0.156,0.22-0.388,0.22-0.691v-0.161c0.178,0.205,0.322,0.361,0.43,0.463c0.109,0.104,0.241,0.204,0.395,0.3
				c0.154,0.098,0.341,0.176,0.561,0.234c0.22,0.06,0.454,0.09,0.704,0.09c0.407,0,0.781-0.082,1.119-0.246
				c0.338-0.164,0.626-0.397,0.864-0.698c0.237-0.301,0.418-0.656,0.543-1.065c0.124-0.41,0.187-0.858,0.187-1.35
				c0-0.665-0.112-1.24-0.336-1.725C234.305,475.036,233.991,474.666,233.586,474.41z M232.796,478.821
				c-0.295,0.355-0.646,0.531-1.053,0.531c-0.479,0-0.866-0.174-1.161-0.521c-0.295-0.346-0.442-0.841-0.442-1.486
				c0-0.439,0.069-0.818,0.208-1.137c0.139-0.318,0.328-0.562,0.57-0.73c0.24-0.168,0.516-0.253,0.825-0.253
				c0.3,0,0.564,0.085,0.79,0.253c0.225,0.168,0.399,0.406,0.521,0.715c0.123,0.309,0.184,0.677,0.184,1.104
				C233.238,477.959,233.09,478.467,232.796,478.821z"/>
			<path id="XMLID_931_" style="fill:#FFFFFF;" d="M240.529,474.114c-0.112-0.066-0.23-0.099-0.353-0.099
				c-0.171,0-0.302,0.03-0.395,0.09c-0.093,0.059-0.181,0.174-0.264,0.344c-0.083,0.17-0.176,0.406-0.279,0.706l-1.3,3.71
				l-1.372-3.989c-0.091-0.276-0.195-0.489-0.314-0.638c-0.119-0.148-0.295-0.223-0.528-0.223c-0.135,0-0.265,0.036-0.389,0.107
				c-0.124,0.071-0.222,0.166-0.294,0.285c-0.071,0.118-0.107,0.246-0.107,0.385c0,0.131,0.062,0.342,0.185,0.629l1.994,5.021
				l-0.148,0.362c-0.111,0.266-0.209,0.466-0.294,0.602c-0.085,0.138-0.181,0.233-0.288,0.288c-0.106,0.057-0.254,0.084-0.44,0.084
				c-0.074,0-0.163-0.012-0.266-0.035c-0.083-0.024-0.168-0.037-0.256-0.037c-0.221,0-0.388,0.052-0.5,0.152
				c-0.113,0.101-0.169,0.245-0.169,0.43c0,0.273,0.119,0.461,0.356,0.565c0.237,0.102,0.593,0.153,1.068,0.153
				c0.487,0,0.873-0.074,1.161-0.223c0.287-0.147,0.517-0.361,0.691-0.639c0.174-0.277,0.353-0.658,0.535-1.145l2.113-5.532
				c0.051-0.142,0.095-0.283,0.13-0.421c0.037-0.139,0.061-0.246,0.078-0.32c0-0.123-0.032-0.239-0.093-0.351
				C240.729,474.268,240.642,474.18,240.529,474.114z"/>
		</g>
		<g id="XMLID_365_">
			<g id="XMLID_380_">
				<path id="XMLID_928_" style="fill:#FFFFFF;" d="M262.93,471.602c-0.533,0-0.954,0.069-1.26,0.205
					c-0.308,0.137-0.527,0.354-0.654,0.652c-0.13,0.301-0.191,0.702-0.191,1.21v0.487h-0.387c-0.543,0-0.815,0.192-0.815,0.582
					c0,0.174,0.066,0.316,0.196,0.424c0.132,0.111,0.315,0.163,0.559,0.163h0.446v4.294c0,0.319,0.074,0.563,0.228,0.729
					c0.154,0.171,0.344,0.254,0.573,0.254c0.243,0,0.439-0.083,0.589-0.254c0.155-0.167,0.23-0.41,0.23-0.729v-4.294h0.395
					c0.291,0,0.517-0.035,0.681-0.107c0.166-0.07,0.245-0.24,0.245-0.502c0-0.374-0.307-0.559-0.926-0.559h-0.395v-0.386
					c0-0.322,0.043-0.568,0.122-0.74c0.087-0.171,0.273-0.259,0.565-0.259c0.107,0,0.241,0.014,0.39,0.033
					c0.155,0.026,0.268,0.038,0.33,0.038c0.134,0,0.252-0.054,0.348-0.159c0.101-0.107,0.15-0.236,0.15-0.385
					C264.35,471.832,263.879,471.602,262.93,471.602z"/>
				<path id="XMLID_926_" style="fill:#FFFFFF;" d="M268.089,474.268c-0.32-0.171-0.647-0.255-0.99-0.255
					c-0.342,0-0.61,0.084-0.818,0.255c-0.202,0.171-0.4,0.422-0.593,0.755c-0.014-0.333-0.08-0.584-0.198-0.755
					c-0.119-0.171-0.313-0.255-0.583-0.255c-0.525,0-0.788,0.364-0.788,1.093v4.514c0,0.323,0.078,0.568,0.226,0.733
					c0.149,0.169,0.34,0.25,0.579,0.25c0.236,0,0.432-0.08,0.586-0.246c0.15-0.163,0.233-0.41,0.233-0.737v-1.355
					c0-0.486,0.014-0.899,0.045-1.239c0.033-0.336,0.089-0.63,0.17-0.877c0.084-0.243,0.201-0.426,0.353-0.554
					c0.149-0.122,0.345-0.186,0.582-0.186c0.172,0,0.374,0.037,0.602,0.108c0.227,0.073,0.371,0.112,0.433,0.112
					c0.158,0,0.305-0.064,0.441-0.195c0.135-0.125,0.204-0.291,0.204-0.487C268.571,474.666,268.411,474.439,268.089,474.268z"/>
				<path id="XMLID_922_" style="fill:#FFFFFF;" d="M274.176,477.525c0.232-0.122,0.351-0.386,0.351-0.791
					c0-0.441-0.112-0.871-0.339-1.296c-0.222-0.424-0.565-0.77-1.018-1.034c-0.453-0.27-0.997-0.403-1.629-0.403
					c-0.488,0-0.931,0.078-1.329,0.233c-0.401,0.156-0.735,0.38-1.008,0.674c-0.276,0.295-0.484,0.644-0.624,1.055
					c-0.145,0.41-0.218,0.855-0.218,1.334c0,1.017,0.292,1.822,0.87,2.417c0.576,0.594,1.385,0.889,2.429,0.889
					c0.453,0,0.857-0.06,1.207-0.179c0.349-0.116,0.64-0.267,0.874-0.446c0.232-0.182,0.404-0.367,0.522-0.566
					c0.111-0.194,0.167-0.364,0.167-0.512c0-0.166-0.048-0.293-0.152-0.386c-0.104-0.092-0.237-0.139-0.405-0.139
					c-0.152,0-0.271,0.038-0.355,0.109c-0.202,0.189-0.367,0.34-0.493,0.449c-0.128,0.113-0.264,0.217-0.415,0.311
					c-0.15,0.098-0.308,0.17-0.466,0.214c-0.16,0.048-0.336,0.068-0.531,0.068c-0.29,0-0.552-0.069-0.792-0.212
					c-0.241-0.145-0.432-0.356-0.578-0.635c-0.145-0.281-0.216-0.607-0.222-0.974h3.171
					C273.615,477.707,273.942,477.647,274.176,477.525z M270.021,476.785c0.055-0.546,0.213-0.957,0.472-1.236
					c0.26-0.28,0.592-0.417,0.995-0.417c0.426,0,0.764,0.136,1.024,0.412c0.261,0.272,0.407,0.688,0.446,1.241H270.021z"/>
				<path id="XMLID_919_" style="fill:#FFFFFF;" d="M280.916,477.525c0.232-0.122,0.352-0.386,0.352-0.791
					c0-0.441-0.116-0.871-0.341-1.296c-0.223-0.424-0.564-0.77-1.013-1.034c-0.46-0.27-1.003-0.403-1.634-0.403
					c-0.486,0-0.932,0.078-1.33,0.233c-0.4,0.156-0.736,0.38-1.009,0.674c-0.273,0.295-0.48,0.644-0.622,1.055
					c-0.145,0.41-0.217,0.855-0.217,1.334c0,1.017,0.29,1.822,0.867,2.417c0.58,0.594,1.387,0.889,2.43,0.889
					c0.453,0,0.859-0.06,1.208-0.179c0.347-0.116,0.641-0.267,0.872-0.446c0.234-0.182,0.408-0.367,0.518-0.566
					c0.116-0.194,0.171-0.364,0.171-0.512c0-0.166-0.047-0.293-0.15-0.386c-0.104-0.092-0.238-0.139-0.406-0.139
					c-0.151,0-0.271,0.038-0.355,0.109c-0.202,0.189-0.367,0.34-0.492,0.449c-0.128,0.113-0.264,0.217-0.415,0.311
					c-0.152,0.098-0.307,0.17-0.469,0.214c-0.157,0.048-0.335,0.068-0.527,0.068c-0.291,0-0.556-0.069-0.795-0.212
					c-0.238-0.145-0.431-0.356-0.575-0.635c-0.144-0.281-0.218-0.607-0.222-0.974h3.17
					C280.354,477.707,280.682,477.647,280.916,477.525z M276.762,476.785c0.053-0.546,0.211-0.957,0.47-1.236
					c0.26-0.28,0.592-0.417,0.995-0.417c0.425,0,0.764,0.136,1.026,0.412c0.257,0.272,0.407,0.688,0.446,1.241H276.762z"/>
				<path id="XMLID_390_" style="fill:#FFFFFF;" d="M286.927,474.41c-0.42-0.257-0.883-0.386-1.38-0.386
					c-0.414,0-0.789,0.089-1.113,0.267c-0.331,0.177-0.648,0.452-0.952,0.827v-0.194c0-0.296-0.071-0.518-0.218-0.678
					c-0.144-0.155-0.329-0.233-0.561-0.233c-0.232,0-0.418,0.078-0.553,0.228c-0.133,0.155-0.2,0.382-0.2,0.692v6.994
					c0,0.355,0.052,0.62,0.146,0.807c0.102,0.184,0.301,0.274,0.606,0.274c0.518,0,0.778-0.358,0.778-1.068v-2.433
					c0.286,0.358,0.586,0.634,0.9,0.816c0.313,0.187,0.704,0.279,1.165,0.279c0.386,0,0.742-0.076,1.08-0.227
					c0.334-0.152,0.622-0.372,0.868-0.653c0.245-0.283,0.44-0.633,0.58-1.05c0.14-0.419,0.21-0.878,0.21-1.376
					c0-0.677-0.122-1.261-0.366-1.758C287.675,475.045,287.346,474.669,286.927,474.41z M286.45,478.413
					c-0.137,0.313-0.32,0.546-0.552,0.704c-0.23,0.154-0.48,0.232-0.748,0.232c-0.454,0-0.828-0.179-1.133-0.536
					c-0.307-0.358-0.459-0.862-0.459-1.504c0-0.686,0.154-1.204,0.461-1.558c0.307-0.35,0.685-0.527,1.131-0.527
					c0.281,0,0.54,0.084,0.77,0.248c0.229,0.163,0.411,0.397,0.542,0.705c0.13,0.306,0.196,0.673,0.196,1.101
					C286.658,477.722,286.588,478.1,286.45,478.413z"/>
				<path id="XMLID_389_" style="fill:#FFFFFF;" d="M289.9,474.013c-0.238,0-0.428,0.079-0.58,0.245
					c-0.145,0.162-0.222,0.402-0.222,0.721v4.642c0,0.314,0.076,0.556,0.222,0.729c0.152,0.171,0.342,0.254,0.58,0.254
					c0.237,0,0.432-0.081,0.588-0.25c0.154-0.165,0.231-0.41,0.231-0.732v-4.688c0-0.287-0.077-0.513-0.231-0.675
					C290.332,474.092,290.138,474.013,289.9,474.013z"/>
				<path id="XMLID_388_" style="fill:#FFFFFF;" d="M289.917,471.673c-0.217,0-0.407,0.076-0.571,0.223
					c-0.166,0.149-0.247,0.339-0.247,0.567c0,0.254,0.08,0.447,0.242,0.586c0.158,0.139,0.35,0.209,0.576,0.209
					c0.22,0,0.408-0.07,0.566-0.209c0.157-0.141,0.236-0.335,0.236-0.586c0-0.256-0.082-0.453-0.244-0.59
					C290.314,471.739,290.13,471.673,289.917,471.673z"/>
				<path id="XMLID_387_" style="fill:#FFFFFF;" d="M297.258,479.042l-1.662-2.613l0.86-0.789c0.438-0.395,0.659-0.714,0.659-0.95
					c0-0.192-0.068-0.355-0.2-0.483c-0.138-0.129-0.306-0.193-0.509-0.193c-0.169,0-0.313,0.044-0.432,0.13
					c-0.121,0.086-0.29,0.252-0.517,0.486l-1.822,1.914v-3.933c0-0.33-0.074-0.582-0.221-0.751
					c-0.147-0.172-0.344-0.258-0.593-0.258c-0.256,0-0.457,0.093-0.596,0.283c-0.136,0.189-0.207,0.463-0.207,0.821v6.913
					c0,0.323,0.073,0.568,0.215,0.733c0.141,0.169,0.339,0.25,0.588,0.25c0.213,0,0.405-0.083,0.566-0.254
					c0.164-0.167,0.247-0.406,0.247-0.718v-1.291l0.88-0.83l1.428,2.354c0.182,0.277,0.329,0.471,0.436,0.58
					c0.106,0.108,0.261,0.159,0.458,0.159c0.227,0,0.413-0.073,0.554-0.221c0.142-0.151,0.214-0.352,0.214-0.609
					c0-0.089-0.029-0.19-0.082-0.289C297.47,479.382,297.379,479.238,297.258,479.042z"/>
				<path id="XMLID_386_" style="fill:#FFFFFF;" d="M299.449,478.816c-0.25,0-0.458,0.086-0.629,0.261
					c-0.171,0.173-0.257,0.382-0.257,0.622c0,0.287,0.091,0.51,0.268,0.666c0.18,0.159,0.39,0.237,0.634,0.237
					c0.237,0,0.444-0.078,0.624-0.241c0.174-0.157,0.264-0.379,0.264-0.662c0-0.243-0.09-0.454-0.264-0.626
					C299.909,478.902,299.698,478.816,299.449,478.816z"/>
				<path id="XMLID_385_" style="fill:#FFFFFF;" d="M306.835,477.89c-0.166,0-0.308,0.054-0.422,0.155
					c-0.113,0.105-0.219,0.246-0.318,0.428c-0.177,0.31-0.381,0.538-0.616,0.688c-0.23,0.15-0.509,0.226-0.834,0.226
					c-0.24,0-0.463-0.045-0.666-0.142c-0.201-0.093-0.372-0.228-0.516-0.408c-0.144-0.18-0.252-0.398-0.325-0.652
					c-0.075-0.256-0.114-0.537-0.114-0.843c0-0.646,0.146-1.161,0.439-1.533c0.293-0.375,0.682-0.561,1.158-0.561
					c0.333,0,0.606,0.075,0.82,0.228c0.219,0.147,0.424,0.375,0.623,0.674c0.108,0.157,0.209,0.269,0.299,0.339
					c0.09,0.068,0.201,0.103,0.338,0.103c0.202,0,0.377-0.068,0.524-0.202c0.143-0.135,0.214-0.301,0.214-0.492
					c0-0.191-0.062-0.398-0.192-0.617c-0.127-0.218-0.314-0.423-0.556-0.619c-0.245-0.192-0.54-0.353-0.891-0.475
					c-0.353-0.123-0.736-0.184-1.156-0.184c-0.674,0-1.26,0.139-1.747,0.419c-0.485,0.279-0.858,0.674-1.113,1.184
					c-0.259,0.511-0.387,1.098-0.387,1.765c0,0.981,0.281,1.764,0.841,2.349c0.563,0.583,1.345,0.876,2.349,0.876
					c0.469,0,0.894-0.065,1.269-0.191c0.377-0.126,0.688-0.295,0.935-0.502c0.248-0.208,0.434-0.425,0.553-0.656
					c0.122-0.229,0.183-0.446,0.183-0.646c0-0.169-0.067-0.33-0.199-0.48C307.198,477.967,307.033,477.89,306.835,477.89z"/>
				<path id="XMLID_382_" style="fill:#FFFFFF;" d="M313.646,474.926c-0.288-0.29-0.628-0.518-1.026-0.674
					c-0.4-0.161-0.847-0.239-1.336-0.239c-0.482,0-0.924,0.078-1.326,0.233c-0.398,0.158-0.737,0.381-1.02,0.669
					c-0.281,0.288-0.498,0.637-0.649,1.045c-0.146,0.408-0.224,0.858-0.224,1.35c0,0.485,0.076,0.929,0.22,1.331
					c0.151,0.401,0.368,0.75,0.656,1.048c0.285,0.292,0.627,0.521,1.017,0.677c0.393,0.159,0.835,0.239,1.326,0.239
					c0.492,0,0.937-0.08,1.336-0.234c0.394-0.158,0.735-0.383,1.02-0.676c0.286-0.291,0.501-0.641,0.656-1.049
					c0.146-0.408,0.222-0.855,0.222-1.336c0-0.489-0.075-0.932-0.221-1.339C314.148,475.569,313.934,475.223,313.646,474.926z
					 M312.455,478.842c-0.29,0.372-0.682,0.557-1.171,0.557c-0.324,0-0.604-0.086-0.846-0.252c-0.24-0.168-0.424-0.41-0.554-0.729
					c-0.13-0.317-0.193-0.685-0.193-1.108c0-0.429,0.066-0.804,0.197-1.125c0.131-0.321,0.314-0.564,0.556-0.727
					c0.242-0.164,0.521-0.246,0.84-0.246c0.489,0,0.881,0.183,1.171,0.555c0.289,0.367,0.436,0.881,0.436,1.543
					C312.891,477.96,312.744,478.473,312.455,478.842z"/>
				<path id="XMLID_381_" style="fill:#FFFFFF;" d="M323.569,474.286c-0.32-0.173-0.705-0.262-1.146-0.262
					c-0.381,0-0.726,0.081-1.038,0.241c-0.314,0.161-0.607,0.407-0.882,0.737c-0.191-0.325-0.431-0.572-0.725-0.735
					c-0.292-0.161-0.642-0.243-1.048-0.243c-0.395,0-0.748,0.079-1.07,0.241c-0.319,0.155-0.62,0.403-0.903,0.737v-0.153
					c0-0.261-0.073-0.466-0.222-0.615c-0.15-0.145-0.334-0.222-0.557-0.222c-0.226,0-0.412,0.078-0.556,0.239
					c-0.14,0.156-0.21,0.389-0.21,0.694v4.636c0,0.336,0.078,0.591,0.235,0.765c0.156,0.171,0.358,0.258,0.605,0.258
					c0.248,0,0.447-0.087,0.603-0.258c0.149-0.174,0.227-0.429,0.227-0.765v-2.188c0-0.684,0.086-1.206,0.253-1.566
					c0.169-0.369,0.517-0.551,1.048-0.551c0.264,0,0.459,0.072,0.582,0.22c0.121,0.142,0.197,0.331,0.226,0.552
					c0.027,0.227,0.04,0.544,0.04,0.953v2.581c0,0.341,0.078,0.594,0.232,0.767c0.148,0.171,0.35,0.256,0.595,0.256
					c0.254,0,0.454-0.085,0.61-0.256c0.156-0.173,0.23-0.426,0.23-0.767v-2.153c0-0.694,0.063-1.178,0.178-1.453
					c0.109-0.209,0.259-0.383,0.45-0.508c0.192-0.125,0.395-0.191,0.609-0.191c0.264,0,0.463,0.072,0.596,0.215
					c0.128,0.142,0.209,0.318,0.238,0.529c0.029,0.209,0.044,0.486,0.044,0.836v2.726c0,0.336,0.078,0.591,0.234,0.765
					c0.157,0.171,0.356,0.258,0.604,0.258c0.252,0,0.458-0.085,0.611-0.256c0.154-0.173,0.229-0.426,0.229-0.767v-3.164
					c0-0.629-0.068-1.09-0.206-1.385C324.128,474.71,323.889,474.46,323.569,474.286z"/>
			</g>
			<g id="XMLID_366_">
				<path id="XMLID_379_" style="fill:#FFFFFF;" d="M245.273,476.917c-0.001-0.004-0.001-0.006-0.001-0.011
					C245.272,476.911,245.272,476.913,245.273,476.917z"/>
				<path id="XMLID_378_" style="fill:#FFFFFF;" d="M245.355,477.435c0.001,0,0.001,0,0.001,0c-0.03-0.147-0.055-0.294-0.073-0.439
					C245.301,477.143,245.326,477.289,245.355,477.435z"/>
				<path id="XMLID_377_" style="fill:#FFFFFF;" d="M245.892,478.939c-0.004-0.006-0.007-0.013-0.011-0.021
					C245.885,478.926,245.888,478.933,245.892,478.939z"/>
				<path id="XMLID_376_" style="fill:#FFFFFF;" d="M245.84,478.839c-0.014-0.027-0.027-0.057-0.04-0.084
					C245.813,478.784,245.826,478.811,245.84,478.839z"/>
				<path id="XMLID_375_" style="fill:#FFFFFF;" d="M245.506,478.015c0.079,0.25,0.175,0.492,0.285,0.724
					c-0.113-0.236-0.206-0.48-0.284-0.724H245.506z"/>
				<path id="XMLID_374_" style="fill:#FFFFFF;" d="M250.736,470.154l-0.076-0.26c0.299-0.063,0.523-0.328,0.523-0.646
					c0-0.364-0.296-0.659-0.66-0.659c-0.365,0-0.66,0.295-0.66,0.659c0,0.317,0.225,0.583,0.522,0.646l0.084,0.29
					c-1.021,0.14-1.834,0.538-1.834,0.538l0.144,0.441c0.617-0.206,1.153-0.331,1.639-0.384c0.476-0.051,0.834-0.072,1.126-0.072
					c0.314,0,0.545,0.024,0.81,0.068l0.075-0.476C252.43,470.301,251.697,470.076,250.736,470.154z"/>
				<path id="XMLID_373_" style="fill:#FFFFFF;" d="M245.453,472.661c-0.017,0.023-0.497,0.465-0.876,1.279
					c-0.016-0.025-0.035-0.05-0.056-0.074c-0.114-0.124-0.273-0.188-0.474-0.184c-0.003,0-0.006,0-0.01,0
					c-0.125,0-0.21-0.041-0.266-0.092c0.056-0.071,0.089-0.161,0.089-0.259c0-0.23-0.188-0.418-0.419-0.418
					c-0.23,0-0.418,0.188-0.418,0.418c0,0.232,0.188,0.418,0.418,0.418c0.037,0,0.071-0.006,0.105-0.013
					c0.102,0.114,0.266,0.214,0.504,0.209c0.123-0.001,0.214,0.03,0.273,0.097c0.07,0.076,0.093,0.185,0.1,0.267
					c0,0.002,0,0.004-0.002,0.004c-0.272,0.743-0.194,1.669-0.194,1.669l0.661,0.025c0.014-0.336,0.062-0.926,0.232-1.394
					c0.329-0.906,0.741-1.472,0.758-1.495l0.003-0.005c0.024-0.031,0.047-0.061,0.071-0.089l-0.196-0.143L245.453,472.661z"/>
				<path id="XMLID_372_" style="fill:#FFFFFF;" d="M257.294,471.26c-0.23,0-0.419,0.188-0.419,0.418
					c0,0.036,0.006,0.07,0.015,0.104c-0.114,0.103-0.214,0.267-0.21,0.507c0.002,0.123-0.03,0.212-0.097,0.272
					c-0.053,0.047-0.119,0.072-0.185,0.088c-0.492-0.689-1.098-1.109-1.098-1.109l-0.474,0.508c0.358,0.326,0.725,0.734,1.08,1.244
					c0.246,0.352,0.499,0.806,0.71,1.259l0.64-0.304c0,0-0.292-0.722-0.703-1.369c0.071-0.025,0.143-0.065,0.206-0.12
					c0.125-0.113,0.188-0.273,0.184-0.474c-0.001-0.13,0.041-0.218,0.093-0.276c0.071,0.055,0.16,0.089,0.258,0.089
					c0.232,0,0.418-0.188,0.418-0.418C257.712,471.447,257.525,471.26,257.294,471.26z"/>
				<path id="XMLID_371_" style="fill:#FFFFFF;" d="M255.633,477.011c-0.88,0.429-2.33,0.995-4.236,1.262
					c-0.749,0.104-1.475,0.142-2.143,0.142c-0.869,0-1.637-0.064-2.227-0.139c-0.672-0.085-1.198-0.188-1.52-0.261
					c0.078,0.244,0.171,0.487,0.284,0.724c0.002,0.006,0.005,0.013,0.008,0.017c0.013,0.027,0.027,0.057,0.04,0.084
					c0.014,0.027,0.027,0.054,0.041,0.079c0.004,0.008,0.007,0.015,0.011,0.021c0.189,0.356,0.417,0.684,0.675,0.968
					c0.899,0.984,1.816,1.14,1.825,1.142l0.015,0.002l0.013,0.005c0.009,0.003,0.821,0.265,2.057,0.265
					c1.215,0,2.409-0.245,3.545-0.729c0.842-0.431,1.639-1.085,2.033-1.669c0.305-0.451,0.526-0.934,0.656-1.434
					c0.069-0.266,0.124-0.692,0.092-1.14C256.555,476.515,256.163,476.752,255.633,477.011z"/>
				<path id="XMLID_367_" style="fill:#FFFFFF;" d="M252.322,471.128c-0.265-0.043-0.477-0.068-0.777-0.068
					c-0.279,0-0.626,0.022-1.088,0.071c-0.465,0.049-0.982,0.171-1.583,0.373c-0.842,0.281-1.603,0.724-2.204,1.279l-0.02,0.019
					c-0.089,0.081-0.274,0.254-0.488,0.525c-0.025,0.038-0.408,0.578-0.709,1.408c-0.226,0.622-0.216,1.526-0.216,1.537v0.002
					c0,0.212,0.013,0.423,0.036,0.632c0,0.005,0,0.007,0.001,0.011c0.002,0.026,0.007,0.053,0.01,0.079
					c0.018,0.145,0.043,0.291,0.074,0.439c0.438,0.111,3.048,0.721,5.966,0.314c1.828-0.255,3.218-0.796,4.061-1.204
					c0.701-0.34,1.151-0.647,1.325-0.774c-0.174-0.643-0.651-1.649-1.089-2.278C254.367,471.702,253.016,471.242,252.322,471.128z
					 M248.679,476.387c-0.971,0-1.759-0.787-1.759-1.759c0-0.972,0.788-1.761,1.759-1.761c0.973,0,1.761,0.789,1.761,1.761
					C250.439,475.6,249.651,476.387,248.679,476.387z M253.828,475.09c-0.601,0-1.088-0.488-1.088-1.09s0.487-1.089,1.088-1.089
					s1.09,0.487,1.09,1.089S254.429,475.09,253.828,475.09z"/>
			</g>
		</g>
	</g>
</g>
</svg>
